<svg width="40" height="40" viewBox="0 0 40 40" fill="none" xmlns="http://www.w3.org/2000/svg">
<rect width="40" height="40" rx="20" fill="#F9F8F7"/>
<g clip-path="url(#clip0_1369_1906)">
<path d="M25.25 21.05H20V26.3H25.25V21.05ZM24.2 9.5V11.6H15.8V9.5H13.7V11.6H12.65C11.4845 11.6 10.5605 12.545 10.5605 13.7L10.55 28.4C10.55 29.555 11.4845 30.5 12.65 30.5H27.35C28.5051 30.5 29.4501 29.555 29.4501 28.4V13.7C29.4501 12.545 28.5051 11.6 27.35 11.6H26.3V9.5H24.2ZM27.35 28.4H12.65V16.85H27.35V28.4Z" fill="#333333"/>
</g>
<defs>
<clipPath id="clip0_1369_1906">
<rect width="24" height="24" fill="white" transform="translate(8 8)"/>
</clipPath>
</defs>
</svg>
